# xmcd
#
# Track frame offsets:
#	150
#	18624
#	31732
#	42871
#	56153
#	66463
#	85746
#	96753
#	106969
#	117945
#	127973
#	138972
#	149623
#	160148
#	172901
#	187394
#	200588
#	214395
#	226795
#	238796
#	252264
#	269133
#	286813
#	302552
#	317301
#	334544
#	350927
#
# Disc length: 4933 seconds
#
# Revision: 1
# Processed by: cddbd v1.5.2PL0 Copyright (c) Steve Scherf et al.
# Submitted via: audiograbber 1.83.01
#
DISCID=9713431b
DTITLE=Hollies - The Very Best of Hollies
DYEAR=1900
DGENRE=
TTITLE0=The Air That I Breathe
TTITLE1=Bus Stop
TTITLE2=Just One Look
TTITLE3=Yes I Will
TTITLE4=Look Through Any Window
TTITLE5=He Ain't Heavy, He's My Brother
TTITLE6=I Can't Let Go
TTITLE7=We're Through
TTITLE8=Searchin'
TTITLE9=Stay
TTITLE10=I'm Alive
TTITLE11=If I Needed Someone
TTITLE12=Here I Go Again
TTITLE13=Stop Stop Stop
TTITLE14=On A Carousel
TTITLE15=Carrie Anne
TTITLE16=King Midas In Reverse
TTITLE17=Jennifer Eccles
TTITLE18=Listen To Me
TTITLE19=Sorry Suzanne
TTITLE20=I Can't Tell The Bottom From The Top
TTITLE21=Gasoline Alley Bred
TTITLE22=Hey Willy 
TTITLE23=Long Cool Woman In A Black Dress
TTITLE24=The Day That Curly Billy Shot Down Crazy Sam McGee
TTITLE25=The Woman I Love
TTITLE26=I'm Down
EXTD=
EXTT0=
EXTT1=
EXTT2=
EXTT3=
EXTT4=
EXTT5=
EXTT6=
EXTT7=
EXTT8=
EXTT9=
EXTT10=
EXTT11=
EXTT12=
EXTT13=
EXTT14=
EXTT15=
EXTT16=
EXTT17=
EXTT18=
EXTT19=
EXTT20=
EXTT21=
EXTT22=
EXTT23=
EXTT24=
EXTT25=
EXTT26=
PLAYORDER=
